<?xml version='1.0' encoding='utf-8'?>
<svg xmlns="http://www.w3.org/2000/svg" width="2627.4" height="1612" clip-rule="evenodd" fill-rule="evenodd" image-rendering="optimizeQuality" shape-rendering="geometricPrecision" text-rendering="geometricPrecision" version="1.1" viewBox="0 0 2627.45 1612.0001"><defs><style type="text/css">
    .str1 {stroke:#2B2A29;stroke-width:0.900032}
    .str3 {stroke:#5B5B5B;stroke-width:0.900032}
    .str0 {stroke:#727271;stroke-width:0.900032}
    .str2 {stroke:#2B2A29;stroke-width:4.16708}
    .fil3 {fill:none}
    .fil5 {fill:#2B2A29}
    .fil4 {fill:#5B5B5B}
    .fil1 {fill:#727271}
    .fil7 {fill:#FCCA17}
    .fil2 {fill:black}
    .fil0 {fill:url(#g)}
    .fil6 {fill:url(#h)}
   </style><mask id="i"><linearGradient id="j" x1="1139.4" x2="1139.4" y1="1234.9" y2="1580.6" gradientUnits="userSpaceOnUse"><stop stop-color="#fff" offset="0"/><stop stop-color="#fff" stop-opacity="0" offset="1"/></linearGradient><rect x="910" y="1231" width="460" height="354" fill="url(#j)"/></mask><mask id="k"><linearGradient id="l" x1="1219.6" x2="1219.6" y1="1532" y2="1605.7" gradientUnits="userSpaceOnUse"><stop stop-color="#fff" offset="0"/><stop stop-color="#fff" stop-opacity="0" offset="1"/></linearGradient><rect x="1173" y="1529" width="93" height="79" fill="url(#l)"/></mask><linearGradient id="g" x1="1726.1" x2="1742.6" y1="587.6" y2="1642.2" gradientTransform="translate(-422 -311)" gradientUnits="userSpaceOnUse"><stop stop-color="#080028" offset="0"/><stop stop-color="#FEFEFE" offset="1"/></linearGradient><linearGradient id="h" x1="1794.4" x2="1666.1" y1="1853.7" y2="1338.3" gradientTransform="matrix(.98982 0 0 1 -400.88 -311)" gradientUnits="userSpaceOnUse"><stop offset="0"/><stop stop-color="#4C4C4C" offset="1"/></linearGradient></defs><rect class="fil0" x="1e-5" y="-1.2305e-5" width="2624" height="1607" fill="url(#g)"/><circle cx="763.88" cy="642.01" r="451.86" clip-rule="evenodd" fill="#fff" fill-rule="evenodd" image-rendering="optimizeQuality" shape-rendering="geometricPrecision"/><polygon class="fil1 str0" transform="translate(-405 -311)" points="2642 1296 2529 1314 2534 1282 2567 1274 2567 1268 2573 1267 2573 1271 2582 1269 2582 1267 2593 1264 2593 1266 2604 1264" fill="#727271" stroke="#727271" stroke-width=".90003"/><path d="m2624 1035.6c-210.51-218.19-1088.3 146.86-1467.8-47.288-339.21-110.96-749.85-118.96-1156.2 105.08v373.05h2618.7z" clip-rule="evenodd" fill="#808080" fill-rule="evenodd" image-rendering="optimizeQuality" shape-rendering="geometricPrecision"/><g transform="translate(-405 -313)"><path class="fil2" d="m1089 1261c1-3 1-3 0-4 1-2 8-8 10-8h4c-1 6-4 7-9 8l-4 13c-3 0-5-1-4-4s3-2 3-5zm-127-19 42 2c-3 3-6 6-13 5-4 19-35 38-35 39l-4 19c-2-1-10-8-12-11-3-2-6-12-5-16l1-3c2-8 4-18 10-22 2-2 16-12 17-13zm124 75v6l-7 14c-8-2-11-5-23-6l-9-1c-7 0-24 1-31 2-6 1-24 8-27 8h-1c-15-1-11-10-12-20 0-3-2-27-2-27 1-3 19-23 22-27 7-7 4-7 13-11 1 0 13-10 13-11h15l41 3v6c-3 1-4 1-5 5-1 3 7 24 8 28 2 4 2 10 3 15 0 5 3 12 2 16zm116 13c-11 2-19 12-21 24-11 4-19 6-30 12-9 5-21 12-27 15-8-6 0-16-4-27-1-4-3-7-5-11-5-5-4-5-5-12 0-4-3-7-4-11-2-6 0-10-1-15-2-10-9-10-5-27 1-4 9-17 12-21h5c3-2 11-10 14-9l42 3c11 1 21 2 30 5 8 3 6 12 5 21 0 8-3 18-3 26-1 7-1 20-2 26zm1 4v6c-8 0-11 4-15 7 2-6 10-12 16-13zm-268-4c-2 9-9 14-13 21h-3l3-28c1-3 3-8 4-11 3 2 8 15 8 19zm269 13 1 5-17 4c2-5 9-10 16-9zm-28 34c-5 0-6 5-9 9-3 5-1 1-6 3-1 2-3 4-4 5s-9 4-11 6c-3 1-8 6-11 7l-10-22c12-5 39-26 54-25l-3 14c-1 3-1 3 0 4zm124 45h-1l11-27c7 0 7 7 9 10l-19 17zm38 16c4 1 5 6 6 9 0 0-3 1-3 1-2 0-3-5-2-8v-3zm-307 99c-5 20-30 35-53 33-22-2-39-21-35-39l1-3c2-9 14-25 21-26 0 3 2 10 3 14s1 10 2 15c1 6 8 20 16 20h1c7 0 22-1 23-6l3-14 3-5-5-5c5-11-7-1-5-8 1-3 4 2 6-6l7-5c9 2 15 19 13 30l-1 4zm39-103-9 7-1 3c-1 4-7 7-9 10-1 6-3 8-7 11l-1 4c-4 4-8 10-11 16-2 3-2 6-4 9-2 4-5 4-5 6 0 1 6 6 7 7 1 3 4 6 4 9 2 7 3 12 1 22-4 19-31 36-54 35h-4c-23-2-42-21-37-41l2-8c3-12 13-19 21-25-2-4-5-6-7-11-3-5 1-10 2-17 1-9-3-23-1-31l1-3c2-7 11-9 18-10v-15c-6 0-14 3-22 3h-3c-25-2-43-29-41-50 1-7 0-15 2-21 1-6 5-18 4-22 0-3-2-5-2-9-1-3 0-6 0-9-1-6-4-11-2-17 1-3 2-3 4-4l-2 4h3c3-9 5 0 8-8 2-5 3-9 4-14l4-19 1 1 5-5-6-12 436 20c-24 12-33 0-22 36 3 6-5 14-6 21l-3 26c-4 19-15 38-23 58 6 2 6 10 11 12 7 3 8 6 10 13 1 4 2 16 4 17 2 5 7 8 8 13l10 5c-1 5 1 15-5 14h-6v2c-11-1-46 9-47 16-17 6-15 44-35 47l1 5c-5 5-5 12-15 13l-1 3c-1 3 0 0-2 2l3 3c-1 2-8 5-8 6-1 3 3 3 3 6-1 3-3 2-5 3-2 8-9 11-17 11-7 0-13-2-17-4-9-4-4-5-4-13-2-10-3-17 0-31l-2-8c-16-5-14-17-14-32-1-10-4-30-2-40l2-9c1-6 16-12 21-12 2-8 0-14 1-21 1-8 3-15 3-23 0-13-2-28-5-38-5 0-22 3-22 7l-3 12c-1 3 0 3 0 6 7 0 14 12 14 13-1 3-3 3-4 7l-1 3-1 10-3 2-8 30c-1 3 0 1-2 3h2l-4 6h2l-4 6c6 1 10 6 9 12h-5c-10-1-12-3-19-5 0 4 1 7 0 12l-1 3c-7 0-14-6-16-11-2-2-2-8-3-9-4-2-7 0-10-4h-5l-29-14" mask="url(#i)"/><path class="fil3" d="m1211 1608c25 2 49-14 54-36s-11-40-36-42-49 14-54 36 11 40 36 42z" fill="none" mask="url(#k)"/></g><g transform="translate(-405 -315)"><path class="fil2" d="m1094 1219c0 3 0 3-1 5 1 2 6 9 7 9h4c0-7-2-7-7-9l-1-14c-3 0-5 1-5 4s2 3 2 6zm-124 10 40 1c-2-4-5-7-11-7 0-21-24-44-24-45v-22c-2 1-11 8-14 11-3 2-8 13-8 17v4c0 8 0 20 5 24 2 2 12 14 13 16zm133-72 1-7-4-16c-8 2-11 5-23 5h-8c-7 0-22-3-29-5-6-2-21-10-23-10h-1c-14 0-12 10-16 21-1 4-7 29-7 29 0 3 13 26 15 31 5 8 3 7 10 13 1 0 10 12 10 13l14 1h39l1-7c-3-1-4-2-4-6 0-3 12-25 14-30 3-4 4-11 6-16 1-6 6-13 6-17zm112-5c-10-3-15-15-15-28-9-5-17-8-25-15-7-6-17-15-22-19-8 6-4 18-9 29-2 5-5 7-7 11-6 6-5 5-7 12-1 5-5 7-7 12-3 7-2 11-4 16-4 10-10 10-10 29 0 5 5 20 7 23h5c2 3 8 11 11 11h40c10 0 21-1 29-3 8-3 8-12 9-22 2-8 1-20 3-29 1-7 4-22 4-28zm2-4 1-7c-7-1-9-6-13-8 1 7 7 14 12 15zm-254-17c0-10-6-16-7-23h-3l-3 31c0 4 1 9 2 12 3-2 11-16 11-20zm257 7 2-6-15-6c1 6 7 11 13 11zm-19-39c-5-1-5-6-7-10-2-6-1-1-5-4-1-2-2-5-3-6s-7-5-9-7c-3-2-7-7-8-8l-14 23c10 7 31 31 45 32v-15c0-3 0-3 1-5zm127-39h-1l5 30c7 0 8-7 10-10l-14-20zm39-15c4-1 6-7 7-9l-3-2c-2 0-4 6-4 8s0 2-1 3zm-268-132c0-22-21-40-43-40-21 0-41 20-41 39v4c0 10 7 28 14 30 1-4 4-11 6-15 2-5 3-11 5-16 2-7 12-21 20-21h1c7 0 21 3 21 8v15l2 6-6 6c3 12-7 1-7 8 0 4 5-2 5 7l6 6c9-2 19-20 19-32v-5zm14 115-7-8v-3c0-5-5-8-7-11 0-7-1-9-5-12v-5c-3-5-6-11-7-18-1-4-1-7-2-10-1-5-4-5-4-7 0-1 7-6 8-7 2-3 5-7 6-9 4-7 6-13 6-24 0-21-22-42-43-42h-4c-22 0-44 20-44 42v8c0 13 8 22 14 29-3 5-6 7-9 11-4 6-1 11-2 19-1 9-7 25-7 34v4c0 7 8 10 15 12l-3 16c-6-1-12-5-20-5h-3c-24 0-47 28-50 52-1 7-3 16-3 22 0 7 1 20-1 24-1 4-3 6-4 9-2 3-1 7-2 10-2 7-6 11-6 19 0 4 1 4 3 5l-1-5h3c1 10 5 1 6 9 1 6 1 10 1 16v21l1-1 4 6-8 12 415 12c-20-15-31-3-13-41 4-7-2-16-1-23l3-28c0-22-6-43-9-65 7-2 7-10 13-12 7-3 8-6 12-13 2-4 6-17 7-18 3-6 8-8 10-14l10-5c0-6 4-16-2-16h-6v-2c-10 0-41-13-41-22-15-7-5-50-22-54l2-6c-4-6-2-13-11-15v-4c0-4 0 0-1-3l4-3c-1-2-7-6-7-7 0-4 4-3 4-7 0-3-2-3-4-4 0-8-6-13-14-13-7 0-12 1-17 3-9 4-5 5-7 14-4 11-7 19-7 34l-4 8c-16 4-17 18-20 34-3 11-10 32-10 43v10c0 7 12 14 17 15 0 9-3 15-4 22-1 8-1 17-2 25-3 14-7 30-13 41-5-1-20-5-20-9v-13c0-3 1-4 1-7 7 0 16-12 16-13 0-4-2-4-2-7v-4l1-11-2-3-1-34c0-3 0-1-1-4h2l-3-7h2l-3-7c6-1 10-6 11-12h-5c-9 0-12 2-19 4 1-5 3-7 3-13v-4c-7 0-15 6-18 10-2 2-4 8-5 9-4 2-7-1-10 4l-5-1-30 13"/><path class="fil3 str2" d="m1284 851c24 0 43 19 43 43s-19 43-43 43-43-19-43-43 19-43 43-43z" fill="none" stroke="#2b2a29" stroke-width="4.1671"/></g><path class="fil4 str3" d="m2575 996c0-8-1-15-1-23 0-1 2-3 6-6-17 0-34 0-51 1v-4h-3v-3h-2c-7-19-33-20-41 1v2h-15l-3 3c0 4 0 8 1 13-3 0-7 0-10-1 1 8 2 16 2 24-1 3-3 6-4 8 5-1 9-3 14-4 11-2 23-4 34-5 10-1 19-3 29-4 0-12 2-23 16-25 16 4 19 13 19 24 3 0 7 0 10-1z" fill="#5b5b5b" stroke="#5b5b5b" stroke-width=".90003"/><polygon class="fil4" transform="translate(-405 -311)" points="2684 1322 2552 1318 2558 1290 2583 1291 2583 1278 2602 1275 2602 1284 2621 1284 2622 1291 2664 1291 2666 1308 2684 1309" fill="#5b5b5b"/><path class="fil5 str1" d="m2107 1016c1-22 2-45 2-67-1-3-5-9-16-16 42 0 83-1 125-1v-11h7v-9h6c15-56 80-61 102 0v5c12 0 24-1 36-1 3 3 6 6 8 9 0 12 0 25-1 37 8-1 16-2 24-2-2 24-3 47-5 71 4 8 8 16 11 24-12-4-23-7-35-11-28-5-56-9-84-14-24-4-47-7-71-11-2-35-6-67-40-72-40 11-45 40-45 71-8 0-17-1-25-1z" fill="#2b2a29" stroke="#2b2a29" stroke-width=".90003"/><polygon class="fil5 str1" transform="translate(-405 -311)" points="3031 1365 2794 1356 2805 1299 2849 1300 2849 1274 2882 1269 2882 1287 2918 1287 2919 1300 2994 1300 2998 1336 3031 1338" fill="#2b2a29" stroke="#2b2a29" stroke-width=".90003"/><path class="fil5 str1" d="m2114 999c-1 0-2 0-2-1h-2v-1h-1c-2-2 0-1-2-2-1-3-3 2-3-7h1v-1h3v-1h1c0 1 1 0 1 1v-2h4v-2c1 0 1 0 2-1v-5h-1v-2c-1 0-1-1-1-2h-1v-1s0-1-2-1v-1c-1 0 0-1 0-2-1 0 0-1-1-2 0-1 0-1-1-1v-1h-1v1h-1c-1-1-1-2-2-3v-1h-1l-4-1c0-1-2 0-2 0v4l-2 2h-2c0 1 0 6-1 6h-1c0 1-5 0-6 0v4h1c1 1 0 1 1 1v1h1v1c5 0 1 0 4-1 1 1 0 2 0 4-3 0-4 1-6 1 0 1 0 0-1 0v8h-1v2h8c0-1 0 0 1 0 1-3 1 2 1-6 1 0 2 2 4 4h1c0 1 0 0 1 0 0 1 0 1 1 1v1h1v1c1 0 1 0 1 1h1v10c1 0 0 0 1-1h1c0-1 0 0 1 0v-1h1v-4h1c0-1 0 0 1 0 0-1 1 0 3-2z" fill="#2b2a29" stroke="#2b2a29" stroke-width=".90003"/><path class="fil5 str1" d="m1997 1021c1-5 2-11 3-16 1-10 5-18 6-27 1-13 4-25 5-38 0-4-1-5-4-3-2 2-2 14-3 6 0-4-1-9 3-10-4 0-7 2-7 2 2-2 5-5 8-5-1 0-13 3-5-2 4-2 7-2 0-6-5-3 12 2 7-5l-4-5c-2-2 6 2 5-1-1-2-3-4-3-5s-2-1-1-2c3-1 4 4 5 5 1 0 1-3 1-3-1-1-1-6 1-2 1 1 1 10 1 9 0-5 3-8 3-12 0 4-1 7 0 11 0 1 7-2 8-2-1 2-10 12-7 9 4-3 11-1 15-1-6 1-9 0-4 6 2 2 4 5 6 8 1 1-18-16-12-6 2 3 2 6 3 9 2 4-4-1-5-2 0 4 2 6 2 9 0 2-5-4-7-6 0 4 3 8 2 14-2-2-4-6-5-8 0 4 1 9 1 13 0 5-1-4-2-6-3 2-5 34-6 40-1 7-3 13-4 19 0 4-1 6-2 10 0 5 0 5-5 5z" fill="#2b2a29" stroke="#2b2a29" stroke-width=".90003"/><path class="fil5 str1" d="m2073 1008c-1-3-1-7-2-10-1-6-3-11-4-17-1-8-3-15-3-24 0-2 1-3 3-2 1 1 2 9 2 4 0-2 0-6-2-6 3 0 5 1 5 1-1-1-3-3-5-3 0 0 8 2 3-1-2-1-4-1 0-4 3-2-8 1-4-3l3-3c1-1-4 1-3 0 0-1 2-3 2-3s1-1 0-1c-2-1-3 3-3 3s-1-2 0-2c0-1 1-3 0-1 0 1-1 6-1 6 0-3-2-5-2-8v7s-4-1-5-2c1 1 7 7 4 6-2-2-7-1-10 0 4 1 5 0 2 4-1 2-3 3-4 5 0 1 12-10 8-4-1 2-1 4-2 6-1 3 3-1 3-1 0 2-1 4-2 6 0 2 3-3 4-4 0 3-2 5-2 9 1-1 3-4 3-5 0 3-1 5 0 8 0 3 1-3 1-4 2 2 3 22 4 25 1 4 2 8 2 12 0 2 1 4 1 6 0 3 0 3 3 3z" fill="#2b2a29" stroke="#2b2a29" stroke-width=".90003"/><path class="fil5 str1" d="m2603 1062c1-3 1-7 2-10 1-6 3-11 4-17 1-8 3-15 3-24 0-2-1-3-3-2-1 1-2 9-2 4 0-2 0-6 2-6-3 0-5 1-5 1 1-1 3-3 5-3 0 0-8 2-3-1 2-1 4-1 0-4-3-2 8 1 4-3l-3-3c-1-1 4 1 3 0 0-1-2-3-2-3s-1-1 0-1c2-1 3 3 3 3s1-2 0-2c0-1-1-3 0-1 0 1 1 6 1 6 0-3 2-5 2-8v7s4-1 5-2c-1 1-7 7-4 6 2-2 7-1 10 0-4 0.99995-5 0-2 4 1 2 3 3 4 5 0 1-12-10-8-4 1 2 1 4 2 6 1 3-3-1-3-1 0 2 1 4 2 6 0 2-3-3-4-4 0 3 2 5 2 9-1-1-3-4-3-5 0 3 1 5 0 8 0 3-1-3-1-4-2 2-3 22-4 25-1 4-2 8-2 12 0 2-1 4-1 6 0 3 0 3-3 3z" fill="#2b2a29" stroke="#2b2a29" stroke-width=".90003"/><path class="fil5 str1" d="m1990 1043c0-6-3-13-3-19v-15c1-14 0-27 0-40 0-2-2-3-3-5-1-1 1-2-1-2s-1-3-1-5c0-4-5 2-6 3s-1 2-1 4c-1 8-1 0-1-2 0-3 0-6 2-8l4-4c-1 0-5-2-2-2s8 0 3-4c-2-1-3-2-5-3-7-2-4-4 2-3 4 1 8 3 8 8v-7c0-2-1 6 1 2 1-2 7-8 4-4-1 2-2 6-2 9 0 1 3 0 3 0-5 0-2 3 0 5 2 1 4 3 6 5 1 1 2 3 2 4-2-3-6-5-10-6-8-1 4 5-1 5-3 0-2 0-2 2 0 4 0 4-1 9 0 5 1 4 1 8 2 11 0 24 0 36 0 5 1 12 1 18 1 4 7 13-1 12z" fill="#2b2a29" stroke="#2b2a29" stroke-width=".90003"/><path class="fil5 str1" d="m2045 1011c0-3 1-6 0-9-1-5-1-8-1-13v-4c0-1-1-1-1-3 0-1-1-3-1-3-1-2 1-4 0-5s-2-3-4-2c0 0-3 1-2 1 0 0 3-3 4-3 3 0-1-3-2-3 1 0 3 1 3 0 1-3-1-4-3-5h-1c-3-2 2 0 2 0l2 2v-4c-1-1-2-1-3-3-1-1 1 0 1 1 1 1 2 1 3 2v1c0 3 1-1 1-3s1 0 1 1v3c0 3 1-2 1-3 0-2 2-2 3-3 0 3-2 4-3 6-1 1 2 0 3 0 1-1 3 0 4-1-1 0-5 2-6 2-2 2 1 3 3 4-4 0-4 2 0 3-3 1-2 1-3 4v3s-1-2-1-1c-1 1 0 4 1 5 0 1 1 3 1 4-1 5-1 12 0 15v8c0 3 0 3-2 2z" fill="#2b2a29" stroke="#2b2a29" stroke-width=".90003"/><path class="fil6" d="m1373.9 1142c-474.12 151-957.15-177-1373.9 26v444h2624v-466l-123.73-15-284.08-75c-377.12-99-499.86-24-842.33 85z" fill="url(#h)"/><rect class="fil7" x="2255" y="942" width="6" height="12" fill="#fcca17"/><rect class="fil7" x="2298" y="975" width="5" height="10" fill="#fcca17"/><rect class="fil7" x="2145" y="971" width="2" height="4" fill="#fcca17"/><rect class="fil7" x="2167" y="968" width="2" height="4" fill="#fcca17"/><rect class="fil7" x="2178" y="959" width="2" height="4" fill="#fcca17"/><rect class="fil7" x="2207" y="978" width="2" height="4" fill="#fcca17"/><rect class="fil7" x="2452" y="969" width="2" height="4" fill="#fcca17"/><rect class="fil7" x="2570" y="999" width="2" height="4" fill="#fcca17"/><rect class="fil7" x="2525" y="1008" width="2" height="4" fill="#fcca17"/><rect class="fil7" x="2482" y="984" width="2" height="4" fill="#fcca17"/><rect class="fil7" x="2612" y="1031" width="2" height="4" fill="#fcca17"/><rect class="fil7" x="2526" y="979" width="2" height="4" fill="#fcca17"/><rect class="fil7" x="2388" y="968" width="4" height="8" fill="#fcca17"/><rect class="fil7" x="2182" y="986" width="3" height="6" fill="#fcca17"/><rect class="fil7" x="2188" y="968" width="2" height="5" fill="#fcca17"/><path class="fil5 str1" d="m2057 1100c-5-9-3-12-3-21l2-1c-1-3-2-11-5-12 0-3 0-6 1-9 3-5 5-7 5-13l3-12c0-5 1-9 1-15 1 0 2-5 3-7 2-4 1-9 1-14 0-2 1 4 1 5 0 4 3 5 3 9 2 1 1 14 1 17h3c0 7 1 14 1 20 2 1 1 10 1 13h6c0 11 1 23 1 34-1 0-2 1-2 3-2 0-4 3-4 4h-2c-1 2-11 1-17-1z" fill="#2b2a29" stroke="#2b2a29" stroke-width=".90003"/></svg>